<?xml version="1.0" encoding="UTF-8"?>
<svg id="_图层_2" data-name="图层 2" xmlns="http://www.w3.org/2000/svg" viewBox="0 0 214.18 153.91">
  <defs>
    <style>
      .cls-1 {
        fill: #3157a6;
      }
    </style>
  </defs>
  <g id="_图层_1-2" data-name="图层 1">
    <g>
      <path class="cls-1" d="M104.82,153.91c-6.52,0-19.45-.84-32.78-6.47-15.21-6.42-26.44-17.32-32.9-31.83-8.22,6.99-15.3,7.32-17.66,7.19-4.42-.24-10.8-2.32-16.09-10.93-8.72-14.19-5.56-29.43,.3-38.97,5.97-9.7,15.29-15.25,24.34-14.51l.92,10.86c-4.45-.37-11.52,4.18-15.06,9.92-4,6.5-6.18,16.85-.3,26.41,2.06,3.35,4.25,5.11,6.51,5.23,4.79,.24,11.29-5.79,14.48-9.92,1.4-1.83,3.7-2.7,5.98-2.27,2.28,.44,4.1,2.1,4.74,4.33,2.57,9.15,14.29,38.94,57.52,38.94,.52,0,52.17-.53,61.47-46.66,5.63-27.91,18.16-40.15,27.68-45.5,5.48-3.08,10.59-4.32,14.4-4.78,3.36-.41,6.19,2.48,5.76,5.84h0s-.18,1.54-.18,1.54c-.28,2.38-2.15,4.24-4.52,4.56-7.77,1.05-24.65,7.26-31.39,40.71-4.4,21.8-17.46,38.37-37.77,47.9-17.34,8.14-33.65,8.38-35.45,8.38Zm-58.73-45.68s-.02,.02-.02,.03c0-.01,.02-.02,.02-.03Z"/>
      <path class="cls-1" d="M43.91,73.35c-14.58,0-30.15-12.69-37.77-19.86-2.54-2.38-2.52-6.41,.03-8.78h0c2.31-2.14,5.88-2.15,8.18,0s5.2,4.68,8.62,7.24c7.21,5.4,13.81,8.61,18.98,9.28,.26-4.46,.32-11.39-1.09-17.88-.79-3.63,.54-7.51,3.69-9.47,3.31-2.06,7.5-1.62,10.31,1.04,7.42,7.03,11.94,9.41,14.26,10.22,.45-5.56-2.52-19.9-7.17-34.59-.98-3.1,.67-6.42,3.74-7.48h0c3.19-1.1,6.65,.65,7.66,3.87,1.22,3.91,2.85,9.39,4.29,15.19,5.3,21.28,3.53,27.79,1.09,31.36-1.69,2.47-4.24,3.9-7.19,4.03-4.95,.23-10.81-2.3-17.71-7.64,.51,6.83,.07,12.9-.22,15.8-.41,4.05-3.63,7.24-7.67,7.59-.68,.06-1.36,.09-2.04,.09Z"/>
      <path class="cls-1" d="M107.17,53.17c-1.11,0-2.22-.09-3.33-.26-6.4-1.01-11.88-4.83-15.43-10.75-3.34-5.57-4.55-12.41-3.43-19.24C87.37,8.4,99.71-1.77,112.5,.26c6.4,1.01,11.88,4.83,15.43,10.75,3.34,5.57,4.55,12.41,3.43,19.24-1.13,6.84-4.47,12.95-9.43,17.21-4.35,3.74-9.5,5.71-14.76,5.71Zm2.03-41.84c-5.97,0-11.54,5.67-12.81,13.39-.7,4.24,0,8.4,1.99,11.7,1.77,2.96,4.36,4.84,7.3,5.3,2.94,.46,6-.52,8.63-2.78,2.94-2.53,4.94-6.25,5.64-10.49,.7-4.24,0-8.4-1.99-11.7-1.77-2.96-4.36-4.84-7.3-5.3-.49-.08-.98-.12-1.47-.12Z"/>
      <path class="cls-1" d="M134.95,61.65h0c-2.52-1.83-3.17-5.26-1.6-7.94,3.58-6.1,5.71-12.5,6.33-19.09,.73-7.79-.8-14.35-2.2-18.44-.93-2.73,.22-5.72,2.73-7.14h0c3.26-1.85,7.41-.28,8.62,3.27,1.82,5.35,3.71,13.61,2.78,23.43-.79,8.37-3.45,16.44-7.93,24.05-1.81,3.07-5.85,3.96-8.73,1.86Z"/>
      <path class="cls-1" d="M151.12,37.6l-10.96-4.85c6.22-14.07,20.32-15.28,30.61-13.26,3.69,.72,5.82,4.61,4.43,8.11h0c-1.07,2.7-3.92,4.25-6.76,3.67-5.42-1.09-13.91-1.38-17.32,6.33Z"/>
      <path class="cls-1" d="M171.08,94.31c-5.15,0-10.96-3.02-15.19-7.08-7.33-7.04-12.23-19.22-3.98-32.34,3.61-5.74,8.81-9.38,15.03-10.54,6.2-1.15,13.26,.09,20.99,3.7,5.45,2.54,9.32,5.41,9.48,5.53l-7.16,9.61c-3.3-2.45-13.54-8.48-21.14-7.05-2.96,.56-5.2,2.19-7.06,5.13-3.07,4.88-3.25,9.6-.53,14.02,2.98,4.86,8.08,7.17,9.54,7.03-.1,0-.43,.09-.82,.36l6.8,9.87c-1.76,1.21-3.81,1.75-5.97,1.75Z"/>
      <path class="cls-1" d="M84.62,94.77c3.27,0,6.39-2.87,6.24-6.24-.15-3.38-2.74-6.24-6.24-6.24-3.27,0-6.39,2.87-6.24,6.24s2.74,6.24,6.24,6.24h0Z"/>
      <path class="cls-1" d="M123.66,92.58c3.27,0,6.39-2.87,6.24-6.24s-2.74-6.24-6.24-6.24c-3.27,0-6.39,2.87-6.24,6.24s2.74,6.24,6.24,6.24h0Z"/>
    </g>
  </g>
</svg>