<?xml version="1.0" encoding="UTF-8"?>
<svg id="_图层_2" data-name="图层 2" xmlns="http://www.w3.org/2000/svg" viewBox="0 0 112.76 91.99">
  <defs>
    <style>
      .cls-1 {
        fill: #233e31;
      }

      .cls-2 {
        fill: none;
        stroke: #233e31;
        stroke-miterlimit: 10;
        stroke-width: 5px;
      }
    </style>
  </defs>
  <g id="_图层_1-2" data-name="图层 1">
    <path class="cls-2" d="M8.07,2.63c25.4-.98,107.03,1.58,101.97,75.65-.14,2.09-1.39,3.95-3.28,4.86C92.88,89.75,34.37,110.55,2.77,10.17c-1.15-3.64,1.48-7.39,5.3-7.54Z"/>
    <path class="cls-1" d="M106.97,82.37C83.89,44.65,46.26,31.37,36.69,28.51c-1.27-.38-2.02-1.68-1.72-2.97h0c.33-1.4,1.75-2.24,3.13-1.85,10.32,2.98,48.87,16.42,73.12,56.07l-4.27,2.61Z"/>
    <path class="cls-1" d="M34.95,46.09h0c-.61-1.31,0-2.86,1.32-3.39,6.15-2.47,22.67-8.02,35.47-2.67,1.4,.59,2.01,2.24,1.26,3.56h0c-.63,1.13-2.01,1.55-3.2,1.05-10.99-4.59-26.12,.52-31.67,2.72-1.23,.49-2.61-.07-3.17-1.27Z"/>
    <path class="cls-1" d="M79.4,48.96c-2.42-11.66-15.17-21.27-20.12-24.61-1.09-.74-1.42-2.2-.75-3.33h0c.73-1.25,2.34-1.63,3.53-.83,5.52,3.69,19.45,14.21,22.24,27.83,.3,1.46-.75,2.86-2.24,2.99h0c-1.29,.11-2.41-.78-2.67-2.05Z"/>
    <path class="cls-1" d="M50.69,64.26v-.02c-.49-1.33,.22-2.8,1.57-3.23,7.19-2.32,28.34-8.25,41.9-2.76,1.4,.57,1.98,2.23,1.23,3.55h0c-.61,1.08-1.93,1.57-3.08,1.09-11.82-4.87-31.8,.74-38.51,2.89-1.28,.41-2.65-.26-3.11-1.52Z"/>
  </g>
</svg>